HIERARCHY
ROOT Hips
{
  OFFSET -125.086 92.215 135.881
  CHANNELS 6 Xposition Yposition Zposition Zrotation Xrotation Yrotation
  JOINT LeftUpLeg
  {
    OFFSET 8.64259 1.95398 -2.38835
    CHANNELS 3 Zrotation Xrotation Yrotation
    JOINT LeftLeg
    {
      OFFSET 43.7702 0 0
      CHANNELS 3 Zrotation Xrotation Yrotation
      JOINT LeftFoot
      {
        OFFSET 40.6238 0 0
        CHANNELS 3 Zrotation Xrotation Yrotation
        JOINT LeftToeBase
        {
          OFFSET 12.7242 0 0
          CHANNELS 3 Zrotation Xrotation Yrotation
          End Site
          {
            OFFSET 0 0 0
          }
        }
      }
    }
  }
  JOINT RightUpLeg
  {
    OFFSET -8.2249 1.95398 -2.59336
    CHANNELS 3 Zrotation Xrotation Yrotation
    JOINT RightLeg
    {
      OFFSET 43.5653 0 0
      CHANNELS 3 Zrotation Xrotation Yrotation
      JOINT RightFoot
      {
        OFFSET 40.6238 0 0
        CHANNELS 3 Zrotation Xrotation Yrotation
        JOINT RightToeBase
        {
          OFFSET 12.7242 0 0
          CHANNELS 3 Zrotation Xrotation Yrotation
          End Site
          {
            OFFSET 0 0 0
          }
        }
      }
    }
  }
  JOINT Spine
  {
    OFFSET 0.165834 0.87714 6.61349
    CHANNELS 3 Zrotation Xrotation Yrotation
    JOINT Spine1
    {
      OFFSET 7.38963 1.71661e-005 0
      CHANNELS 3 Zrotation Xrotation Yrotation
      JOINT Spine2
      {
        OFFSET 11.9445 1.14441e-005 0
        CHANNELS 3 Zrotation Xrotation Yrotation
        JOINT Spine3
        {
          OFFSET 14.7254 4.19617e-005 0
          CHANNELS 3 Zrotation Xrotation Yrotation
          JOINT Spine4
          {
            OFFSET 10.9679 0 0
            CHANNELS 3 Zrotation Xrotation Yrotation
            JOINT RightShoulder
            {
              OFFSET 2.46616 -1.6653 3.69651
              CHANNELS 3 Zrotation Xrotation Yrotation
              JOINT RightArm
              {
                OFFSET 13.0012 0 0
                CHANNELS 3 Zrotation Xrotation Yrotation
                JOINT RightForeArm
                {
                  OFFSET 28.7848 1.52588e-005 0
                  CHANNELS 3 Zrotation Xrotation Yrotation
                  JOINT RightHand
                  {
                    OFFSET 26.5688 1.52588e-005 0
                    CHANNELS 3 Zrotation Xrotation Yrotation
                    End Site
                    {
                      OFFSET 0 0 0
                    }
                  }
                }
              }
            }
            JOINT LeftShoulder
            {
              OFFSET 2.38034 -1.29275 -3.7523
              CHANNELS 3 Zrotation Xrotation Yrotation
              JOINT LeftArm
              {
                OFFSET 16.3182 6.10352e-005 0
                CHANNELS 3 Zrotation Xrotation Yrotation
                JOINT LeftForeArm
                {
                  OFFSET 27.0901 0 0
                  CHANNELS 3 Zrotation Xrotation Yrotation
                  JOINT LeftHand
                  {
                    OFFSET 24.5451 1.52588e-005 0
                    CHANNELS 3 Zrotation Xrotation Yrotation
                    End Site
                    {
                      OFFSET 0 0 0
                    }
                  }
                }
              }
            }
            JOINT Neck
            {
              OFFSET 5.0226 -0.0266342 0
              CHANNELS 3 Zrotation Xrotation Yrotation
              JOINT Head
              {
                OFFSET 6.69363 2.86102e-005 0
                CHANNELS 3 Zrotation Xrotation Yrotation
                End Site
                {
                  OFFSET 0 0 0
                }
              }
            }
          }
        }
      }
    }
  }
}
MOTION
Frames:	15
Frame Time:	0.0416667
-95.0732 100.822 -81.8295 -101.614 45.765 -72.8957 -172.171 31.0739 101.206 -26.9541 10.9354 0.16309 31.8867 -12.2701 -12.3507 32.0773 -0.12334 -3.00934 165.778 37.1162 87.1206 -20.3285 -0.908237 7.98116 33.1692 8.5081 30.9895 61.0456 -5.12359 -0.598124 0.0510119 12.4511 -89.6765 1.97057 0.226779 0.6341 -9.70058 0.25446 0.623495 -32.234 0.0257284 0.672927 -12.2213 0.0257248 0.672919 103.958 -30.9179 -78.526 0.658282 1.17125 43.9935 3.22655 -15.6382 -8.81804 0.999049 0.0126836 -2.45627 -78.868 -37.0777 95.0162 -17.5213 -23.0098 38.0113 3.80979 41.7896 0.00773585 4.23845 -0.233267 -7.87716 -15.9244 7.03647 -26.9399 5.50147 9.71101 31.3055 
-111.705 85.1331 -99.8157 -104.596 38.7546 -76.6497 -175.567 24.9437 90.3914 -63.7686 22.8691 3.90254 65.7184 13.5974 23.3915 52.3328 -0.967218 6.00598 165.921 39.0986 83.5949 -22.7655 -0.57715 6.46412 20.7074 10.6465 34.1269 85.3042 -8.88176 0.444431 -0.946769 12.4964 -89.5138 1.88307 -1.70291 0.907432 -9.78726 -1.66135 0.981503 -32.3298 -1.89688 0.353554 -12.3171 -1.89688 0.353555 113.369 -49.7506 -64.7127 10.2716 11.5802 39.4613 -0.627878 2.48966 -2.93313 2.01973 0.0219846 -3.17603 -73.4077 -50.352 103.549 -21.8463 -21.142 0.426244 5.27114 34.2172 1.07338 7.29722 -0.542707 -9.80461 -14.9529 6.98257 -24.8793 6.58127 9.98598 29.7661 
-124.453 76.3031 -114.655 -102.665 32.4631 -78.9598 176.918 32.4864 92.8025 -98.872 21.5792 5.12637 60.7893 8.09723 14.9215 70.4949 -0.221475 13.2473 160.44 47.3877 89.2243 -60.1136 -17.3628 8.50418 63.0925 -4.02624 -1.83967 10.0222 2.91501 0.361949 -0.996436 12.454 -90.1413 1.96156 -2.04397 -0.322778 -9.70782 -2.05618 -0.232471 -32.2537 -1.85245 -0.922358 -12.2411 -1.85245 -0.922343 119.533 -58.7223 -57.9483 25.9545 -0.79787 1.44349 6.48463 5.83397 -6.59387 4.95633 -0.195188 -8.53177 -75.3086 -51.7106 100.653 -29.6263 -3.40587 -32.0461 3.33287 15.3535 -12.9683 9.98812 -0.581385 -8.90058 -8.03294 4.14928 -17.9841 5.39776 7.16252 21.923 
-135.9 71.9935 -123.707 -110.533 41.028 -69.498 170.706 45.0868 98.0323 -108.4 14.3974 4.56659 57.7336 5.95706 11.9613 59.1804 -0.761065 12.1022 162.425 50.3996 93.9237 -85.0321 -25.8904 1.57384 49.4396 4.02753 7.02712 50.3137 -3.49293 -1.61006 -0.177011 13.2484 -90.3246 0.374672 -0.474007 -0.651402 -11.2963 -0.502243 -0.629917 -33.8305 -0.256346 -0.763748 -13.8179 -0.256327 -0.763758 107.806 -52.4734 -73.608 15.2238 -9.39598 -34.8155 15.3401 12.2386 -34.1017 -3.04982 0.063804 -10.5238 -81.0116 -46.3196 91.853 -34.2862 -4.05979 -46.3955 9.55243 26.5597 -10.8553 28.186 -0.895053 -7.22789 -1.77629 2.91066 -16.1829 -0.358215 5.76179 27.5229 
-146.686 71.6707 -133.011 -110.691 48.8628 -71.3382 167.355 51.4733 98.2089 -74.5641 22.5135 6.61469 54.1653 1.91706 10.5286 53.6915 -0.787792 13.9632 166.077 44.9372 90.3125 -95.0792 -19.5342 -1.04483 70.3888 -7.84789 4.17695 51.3819 -3.3685 1.80142 0.0666937 12.7666 -89.7543 1.3488 0.228838 0.470526 -10.322 0.249327 0.459992 -32.858 0.0768146 0.517544 -12.8453 0.0768171 0.517535 107.797 -48.5756 -73.2333 25.0545 -4.0807 -44.6516 12.0388 9.35127 -51.0998 -5.70175 0.163351 -9.42965 -80.6042 -49.4303 92.6381 -30.2369 -9.16506 -42.8109 6.77809 37.3246 -1.98783 17.7851 -0.628437 -7.45133 -2.49353 3.02157 -17.1754 -1.35043 5.65253 28.5975 
-158.487 70.4358 -143.702 -112.346 54.285 -70.7839 171.691 53.3071 97.9722 -68.412 22.9521 5.69518 52.843 0.329333 8.20225 43.629 -1.08092 8.67226 175.009 38.6884 84.148 -103.079 -18.0934 -3.39479 70.77 -7.12592 7.34967 68.5387 -3.8883 8.93096 -0.0741298 12.3458 -89.2053 2.17752 0.159687 1.55607 -9.49435 0.228019 1.54753 -32.0221 -0.315299 1.53213 -12.0095 -0.315297 1.53213 109.591 -52.3506 -70.9278 20.967 -9.35307 -38.9219 3.22141 -0.493477 -51.6412 -2.93388 0.109741 -10.8551 -77.7427 -53.2164 97.02 -28.6974 -11.6451 -33.6069 5.85716 27.3285 0.117191 14.7905 -0.377305 -6.23051 5.07713 4.58149 -24.5223 -10.3109 6.87824 37.4995 
-168.11 71.2285 -152.921 -108.638 52.5749 -74.2453 175.59 53.4347 92.4206 -81.4475 25.9734 4.75025 57.6848 4.62807 17.4132 51.8963 -1.32177 7.41896 179.522 34.1336 82.436 -106.613 -18.7684 -4.20518 59.2371 -1.10963 10.1649 61.7977 -4.55731 3.07239 -0.400764 12.1227 -89.0503 2.6281 -0.428624 1.84867 -9.0441 -0.346871 1.86573 -31.5712 -0.964348 1.63447 -11.5585 -0.964354 1.63448 113.041 -57.8204 -66.7764 25.3076 -5.23645 -31.6472 -1.03486 -9.86471 -33.964 -11.2158 0.11631 -6.64087 -78.3377 -52.5084 96.1447 -31.4474 -13.7611 -37.2807 9.5334 38.3501 0.0182311 11.4243 -0.405652 -6.97416 9.04936 3.69898 -27.1239 -10.8113 7.20592 38.9442 
-174.042 75.2474 -159.854 -100.955 48.117 -80.4033 175.227 51.9827 90.9014 -83.1783 28.7308 5.09576 57.4618 3.56677 13.9804 54.7277 -1.30591 8.06609 174.515 41.0948 88.715 -105.975 -18.5222 -3.5418 44.6709 4.88692 9.10151 24.9486 1.75115 -8.82447 -0.261456 11.8604 -89.5148 3.1526 -0.330043 0.945372 -8.51867 -0.288146 0.958983 -31.0519 -0.598901 0.802488 -11.0393 -0.598916 0.802485 113.857 -58.6397 -65.784 29.3013 0.657043 -27.9081 2.25375 -9.4293 -10.4307 -8.86205 -0.126664 -3.86662 -78.3906 -52.2801 96.063 -27.2813 -7.24653 -44.2202 7.30245 37.3211 -8.13746 8.90988 -0.410147 -7.90066 10.892 1.43946 -24.4156 -11.2593 4.77255 36.3703 
-179.688 80.5107 -166.118 -96.0899 43.9073 -83.5221 175.491 45.5661 90.0346 -78.7692 30.5333 5.62452 59.335 5.01315 14.5457 53.0628 -1.52841 5.51119 171.153 45.731 92.5329 -93.9941 -15.5047 -2.13658 54.1596 2.02698 16.6069 43.9665 -2.40455 0.846571 -0.163727 11.3648 -89.9206 4.14595 -0.295246 0.160292 -7.52494 -0.287928 0.173118 -30.0606 -0.329793 0.064138 -10.0479 -0.329778 0.0641377 114.691 -59.6884 -64.8339 28.4958 6.02981 -26.147 3.20465 -31.6443 1.07174 -0.0660045 -0.0146029 -3.68727 -78.6272 -49.7824 95.6763 -24.0065 -2.89464 -47.6008 18.0718 35.0012 -33.7505 4.12131 -0.543276 -12.0774 6.60638 1.02458 -22.0207 -7.13867 4.40904 32.8649 
-184.855 86.3297 -172.119 -94.6242 41.4972 -83.594 175.841 36.2138 90.7093 -70.919 30.2605 6.60002 58.6725 4.34478 12.4882 52.5573 -1.65989 3.92931 174.275 44.6338 91.7075 -72.5435 -11.1891 -0.716408 58.1765 0.681612 15.9695 46.7608 -3.15192 -5.31068 -0.200604 10.692 -90.3184 5.48835 -0.53339 -0.611134 -6.18262 -0.559774 -0.587062 -28.7171 -0.325071 -0.74318 -8.7044 -0.325068 -0.743177 115.336 -59.8562 -63.9836 25.7614 7.15109 -21.2764 3.0063 -35.3145 0.0461696 1.08694 -0.00231515 -3.44327 -77.814 -50.2025 96.9161 -19.0752 -0.701915 -48.5503 21.5051 30.066 -47.2677 4.76069 -0.552063 -11.7776 6.9143 0.760706 -19.3728 -11.3806 2.59979 30.1653 
-190.358 91.4674 -178.399 -97.3604 39.2532 -82.9884 177.761 22.6946 89.4396 -60.5284 31.1224 7.21628 56.8176 2.87331 11.0764 54.1891 -1.77278 3.64607 178.244 34.1094 87.9962 -43.1536 -10.0534 -1.09824 58.6255 1.30659 18.006 52.3579 -4.43644 -6.72915 -0.342461 10.3103 -90.328 6.25069 -0.822714 -0.618183 -5.42011 -0.84912 -0.581383 -27.9553 -0.598902 -0.836861 -7.9427 -0.598911 -0.836861 113.851 -58.2751 -65.723 25.5915 5.84924 -17.7508 3.5266 -32.7868 -0.607602 -1.74785 -0.0521929 -2.5845 -78.3928 -48.6647 96.0201 -17.988 -0.319859 -49.9674 23.153 30.2316 -49.8945 5.7909 -0.638406 -12.0364 5.89818 0.553489 -16.1218 -15.7074 0.957975 25.2026 
-196.601 94.2498 -185.177 -97.3711 34.935 -82.8549 178.461 11.7835 90.145 -52.4995 31.0967 8.71776 57.6641 3.60637 9.5627 55.3125 -1.80814 3.85429 177.893 23.006 87.3465 -22.7514 -5.6595 -1.1606 57.0146 2.66431 18.5726 45.7893 -3.00828 -6.93056 -0.541545 9.51975 -90.477 7.82926 -1.28884 -0.880894 -3.8413 -1.32636 -0.82332 -26.3774 -0.964538 -1.22751 -6.36473 -0.964514 -1.22751 112.547 -57.0728 -67.342 24.9804 4.76193 -14.9196 2.91424 -31.5062 -3.31691 -4.73181 -0.157157 -1.5013 -78.918 -47.1428 95.1772 -18.7217 0.606505 -50.8143 23.7876 35.859 -46.7622 3.63485 -0.490625 -12.017 0.656244 0.56276 -13.0646 -17.918 -0.0844626 20.2963 
-202.591 94.6204 -192.476 -98.029 34.7792 -83.0295 179.334 4.14241 91.5745 -49.8721 31.1532 9.96913 57.4514 3.2028 6.66571 58.6329 -2.11635 3.00512 177.668 16.3413 88.4631 -19.4734 -7.32383 -1.47705 52.0286 4.26065 17.9479 45.4314 -2.81769 -3.92787 -0.488291 8.57714 -90.412 9.71674 -1.15982 -0.716965 -1.95385 -1.19025 -0.665233 -24.4901 -0.890738 -1.03239 -4.47751 -0.890727 -1.03239 113.236 -57.2984 -66.4057 22.5038 3.00811 -13.8234 3.41865 -30.9495 -5.55733 -6.4606 -0.331326 0.81346 -77.7799 -47.7325 96.9581 -20.0423 1.08178 -47.3804 20.7007 40.4656 -40.6119 2.09158 -0.378295 -11.8309 -2.45209 0.59191 -9.91478 -21.1976 -0.678911 15.6994 
-208.172 94.7491 -198.677 -98.0662 37.9252 -81.6525 178.939 4.33973 92.0947 -54.5536 24.3904 9.17504 47.1082 -2.99493 -2.4992 57.0944 -2.37103 0.17535 178.062 15.7794 90.8997 -26.8525 -13.6074 -1.38307 53.9766 3.18025 13.1666 37.6563 -1.2959 -4.13924 -0.363278 7.9603 -90.6282 10.9468 -1.01388 -1.15367 -0.724236 -1.06365 -1.10794 -23.2567 -0.620326 -1.40501 -3.24406 -0.620309 -1.40501 112.942 -57.4111 -66.8425 20.6799 0.730523 -18.04 3.7013 -32.0072 -7.34768 -7.4899 -0.323974 -0.134463 -75.7071 -49.8227 100.128 -23.2985 -0.657324 -38.5391 16.1516 40.6523 -32.2244 6.66061 -0.629358 -11.1701 -1.56875 1.11219 -9.48011 -24.23 -0.707636 16.4947 
-212.875 94.9698 -204.058 -100.6 37.9786 -80.6351 177.971 8.43385 90.7725 -65.3351 21.7369 7.76554 43.745 -4.66597 1.09416 51.1258 -1.67394 2.84279 177.576 11.6529 91.1901 -32.1546 -13.9566 -1.76188 58.7678 1.69921 12.374 38.2495 -1.43069 -3.22855 -0.340916 7.81401 -90.6029 11.24 -0.958969 -1.10573 -0.431033 -1.00671 -1.06246 -22.9637 -0.582351 -1.34278 -2.95104 -0.582359 -1.34279 114.581 -58.1241 -64.6733 19.834 -2.18192 -21.0699 1.62407 -28.4927 -14.205 -8.90471 -0.323177 -1.00943 -74.8648 -50.2609 101.388 -29.1696 -3.40601 -31.512 9.11165 45.0866 -16.7165 8.04732 -0.576515 -9.69611 -3.38138 1.05216 -10.4193 -23.8889 -0.449964 14.8058 
